<svg width="172" height="50" viewBox="0 0 172 50" fill="none" xmlns="http://www.w3.org/2000/svg">
<path d="M58.079 18.1394C57.7203 18.1394 57.5186 17.9596 57.5186 17.5774V12.4744C57.5186 12.0922 57.6979 11.9124 58.079 11.9124C58.46 11.9124 58.6394 12.0922 58.6394 12.4744V17.5774C58.6394 17.9596 58.46 18.1394 58.079 18.1394Z" fill="#005A28"/>
<path d="M60.5673 18.1394C60.2086 18.1394 60.0293 17.9596 60.0293 17.5774V14.3177C60.0293 13.9581 60.2086 13.7782 60.5449 13.7782C60.9035 13.7782 61.0604 13.9581 61.0604 14.3177V14.4976C61.1949 14.2503 61.3967 14.0705 61.6433 13.9356C61.8898 13.8007 62.1588 13.7557 62.4727 13.7557C63.459 13.7557 63.9746 14.3402 63.9746 15.4867V17.5774C63.9746 17.9371 63.7952 18.1394 63.4366 18.1394C63.0779 18.1394 62.8986 17.9596 62.8986 17.5774V15.5317C62.8986 15.1945 62.8313 14.9697 62.7192 14.8123C62.5848 14.6549 62.4054 14.5875 62.1364 14.5875C61.8226 14.5875 61.576 14.6774 61.3743 14.8798C61.1725 15.0821 61.0829 15.3518 61.0829 15.6666V17.5549C61.1053 17.9596 60.9259 18.1394 60.5673 18.1394Z" fill="#005A28"/>
<path d="M65.7897 12.9914C65.588 12.9914 65.4311 12.9464 65.319 12.834C65.2069 12.7441 65.1396 12.5868 65.1396 12.4069C65.1396 12.2271 65.2069 12.0697 65.319 11.9798C65.4311 11.8899 65.588 11.8224 65.7897 11.8224C66.2156 11.8224 66.4174 12.0023 66.4174 12.3844C66.4174 12.7891 66.2156 12.9914 65.7897 12.9914ZM65.7897 18.1394C65.6104 18.1394 65.4759 18.0944 65.3862 17.982C65.2966 17.8696 65.2517 17.7347 65.2517 17.5549V14.3852C65.2517 14.003 65.4311 13.8007 65.7897 13.8007C66.1484 13.8007 66.3277 14.003 66.3277 14.3852V17.5549C66.3277 17.7347 66.2829 17.8921 66.1932 17.982C66.1035 18.0944 65.969 18.1394 65.7897 18.1394Z" fill="#005A28"/>
<path d="M69.5786 18.1619C69.1303 18.1619 68.7492 18.0719 68.413 17.8921C68.0767 17.7123 67.8302 17.4425 67.6508 17.1278C67.4715 16.813 67.3818 16.4084 67.3818 15.9588C67.3818 15.5092 67.4715 15.127 67.6508 14.7898C67.8302 14.4526 68.0767 14.2053 68.413 14.048C68.7492 13.8906 69.1303 13.7782 69.5786 13.7782C69.758 13.7782 69.9821 13.8007 70.2063 13.8456C70.4304 13.8906 70.6322 13.9805 70.8339 14.1154C70.946 14.1828 71.0133 14.2728 71.0357 14.3852C71.0581 14.4976 71.0357 14.5875 70.9908 14.6774C70.946 14.7673 70.8788 14.8348 70.7667 14.8797C70.677 14.9247 70.5649 14.9022 70.4529 14.8348C70.1839 14.6774 69.9373 14.61 69.6907 14.61C69.3096 14.61 69.0182 14.7224 68.8165 14.9697C68.6147 15.1945 68.5026 15.5317 68.5026 15.9588C68.5026 16.3859 68.6147 16.7231 68.8165 16.9704C69.0182 17.2177 69.3096 17.3301 69.6907 17.3301C69.9373 17.3301 70.1839 17.2626 70.4529 17.1053C70.5649 17.0378 70.677 17.0154 70.7667 17.0603C70.8564 17.1053 70.9236 17.1727 70.9684 17.2626C71.0133 17.3526 71.0133 17.465 70.9908 17.5549C70.9684 17.6673 70.9012 17.7572 70.7891 17.8247C70.6098 17.9371 70.408 18.027 70.1839 18.0719C69.9597 18.1394 69.758 18.1619 69.5786 18.1619Z" fill="#005A28"/>
<path d="M72.403 12.9914C72.2013 12.9914 72.0443 12.9464 71.9323 12.834C71.8202 12.7441 71.7529 12.5868 71.7529 12.4069C71.7529 12.2271 71.8202 12.0697 71.9323 11.9798C72.0443 11.8899 72.2013 11.8224 72.403 11.8224C72.8289 11.8224 73.0307 12.0023 73.0307 12.3844C73.0531 12.7891 72.8289 12.9914 72.403 12.9914ZM72.403 18.1394C72.2237 18.1394 72.0892 18.0944 71.9995 17.982C71.9098 17.8696 71.865 17.7347 71.865 17.5549V14.3852C71.865 14.003 72.0443 13.8007 72.403 13.8007C72.7617 13.8007 72.941 14.003 72.941 14.3852V17.5549C72.941 17.7347 72.8962 17.8921 72.8065 17.982C72.7168 18.0944 72.5823 18.1394 72.403 18.1394Z" fill="#005A28"/>
<path d="M75.6307 18.1619C75.3168 18.1619 75.0478 18.0944 74.8237 17.982C74.5771 17.8696 74.3978 17.7123 74.2633 17.5099C74.1288 17.3076 74.0615 17.0828 74.0615 16.8355C74.0615 16.5208 74.1512 16.2735 74.3081 16.0937C74.465 15.9138 74.734 15.779 75.0927 15.689C75.4513 15.5991 75.9445 15.5766 76.5497 15.5766H76.8411V15.3968C76.8411 15.1045 76.7739 14.9022 76.6618 14.7673C76.5273 14.6325 76.3256 14.5875 76.0342 14.5875C75.8772 14.5875 75.6979 14.61 75.4962 14.6549C75.2944 14.6999 75.0927 14.7673 74.8909 14.8573C74.7564 14.9247 74.6443 14.9247 74.5547 14.8797C74.465 14.8348 74.3978 14.7449 74.3753 14.6549C74.3529 14.5425 74.3529 14.4301 74.3978 14.3402C74.4426 14.2278 74.5323 14.1604 74.6668 14.0929C74.9358 13.9805 75.1823 13.9131 75.4289 13.8681C75.6755 13.8232 75.8997 13.8007 76.1014 13.8007C76.7066 13.8007 77.1774 13.9356 77.4688 14.2278C77.7602 14.5201 77.9171 14.9472 77.9171 15.5542V17.6223C77.9171 17.982 77.7602 18.1844 77.424 18.1844C77.0877 18.1844 76.9084 18.0045 76.9084 17.6223V17.3975C76.8187 17.6448 76.6618 17.8247 76.4376 17.9596C76.1911 18.0944 75.9221 18.1619 75.6307 18.1619ZM75.8548 17.42C76.1462 17.42 76.3704 17.3301 76.5497 17.1278C76.7291 16.9255 76.8411 16.6782 76.8411 16.3859V16.2061H76.5497C76.0117 16.2061 75.6307 16.251 75.4289 16.341C75.2272 16.4309 75.1151 16.5658 75.1151 16.7906C75.1151 16.9704 75.1823 17.1278 75.3168 17.2627C75.4513 17.3526 75.6307 17.42 75.8548 17.42Z" fill="#005A28"/>
<path d="M81.0779 18.1619C79.9571 18.1619 79.3967 17.5999 79.3967 16.4983V14.6549H78.9484C78.657 14.6549 78.5225 14.5201 78.5225 14.2503C78.5225 13.9805 78.657 13.8457 78.9484 13.8457H79.3967V13.0588C79.3967 12.6992 79.576 12.5193 79.9347 12.5193C80.2933 12.5193 80.4727 12.6992 80.4727 13.0588V13.8457H81.3917C81.6832 13.8457 81.8177 13.9805 81.8177 14.2503C81.8177 14.5201 81.6832 14.6549 81.3917 14.6549H80.4727V16.4309C80.4727 16.7007 80.5399 16.9255 80.652 17.0603C80.7641 17.1952 80.9658 17.2627 81.2348 17.2627C81.3245 17.2627 81.4142 17.2627 81.5038 17.2402C81.5711 17.2177 81.6383 17.2177 81.7056 17.1952C81.7728 17.1952 81.8401 17.2177 81.8849 17.2627C81.9297 17.3076 81.9522 17.42 81.9522 17.5549C81.9522 17.6673 81.9297 17.7797 81.8849 17.8696C81.8401 17.9596 81.7728 18.027 81.6832 18.0495C81.6159 18.072 81.5038 18.0944 81.3917 18.1169C81.2797 18.1394 81.1676 18.1619 81.0779 18.1619Z" fill="#005A28"/>
<path d="M83.2751 12.9914C83.0733 12.9914 82.9164 12.9464 82.8043 12.834C82.6922 12.7441 82.625 12.5868 82.625 12.4069C82.625 12.2271 82.6922 12.0697 82.8043 11.9798C82.9164 11.8899 83.0733 11.8224 83.2751 11.8224C83.701 11.8224 83.9027 12.0023 83.9027 12.3844C83.9027 12.7891 83.701 12.9914 83.2751 12.9914ZM83.2751 18.1394C83.0957 18.1394 82.9612 18.0944 82.8716 17.982C82.7819 17.8696 82.7371 17.7347 82.7371 17.5549V14.3852C82.7371 14.003 82.9164 13.8007 83.2751 13.8007C83.6337 13.8007 83.8131 14.003 83.8131 14.3852V17.5549C83.8131 17.7347 83.7682 17.8921 83.6786 17.982C83.5889 18.0944 83.4544 18.1394 83.2751 18.1394Z" fill="#005A28"/>
<path d="M86.8162 18.1394C86.5248 18.1394 86.323 17.982 86.1885 17.6898L84.8212 14.4976C84.7315 14.3177 84.7315 14.1379 84.8212 14.003C84.9108 13.8681 85.0453 13.7782 85.2919 13.7782C85.4264 13.7782 85.5385 13.8007 85.6057 13.8681C85.6954 13.9356 85.7626 14.048 85.8299 14.2053L86.861 16.813L87.937 14.2053C88.0043 14.048 88.0715 13.9356 88.1612 13.8681C88.2508 13.8007 88.3629 13.7782 88.4974 13.7782C88.6768 13.7782 88.8113 13.8456 88.8785 14.003C88.9457 14.1379 88.9457 14.3177 88.8785 14.4976L87.4887 17.6898C87.3318 18.0045 87.13 18.1394 86.8162 18.1394Z" fill="#005A28"/>
<path d="M91.1434 18.1619C90.8295 18.1619 90.5605 18.0944 90.3364 17.982C90.0898 17.8696 89.9105 17.7123 89.776 17.5099C89.6415 17.3076 89.5742 17.0828 89.5742 16.8355C89.5742 16.5208 89.6639 16.2735 89.8208 16.0937C89.9777 15.9138 90.2467 15.779 90.6054 15.689C90.964 15.5991 91.4572 15.5766 92.0624 15.5766H92.3538V15.3968C92.3538 15.1045 92.2866 14.9022 92.1745 14.7673C92.04 14.6325 91.8383 14.5875 91.5468 14.5875C91.3899 14.5875 91.2106 14.61 91.0089 14.6549C90.8071 14.6999 90.6054 14.7673 90.4036 14.8573C90.2691 14.9247 90.157 14.9247 90.0674 14.8797C89.9777 14.8348 89.9105 14.7449 89.888 14.6549C89.8656 14.5425 89.8656 14.4301 89.9105 14.3402C89.9553 14.2278 90.045 14.1604 90.1795 14.0929C90.4484 13.9805 90.695 13.9131 90.9416 13.8681C91.1882 13.8232 91.4123 13.8007 91.6141 13.8007C92.2193 13.8007 92.6901 13.9356 92.9815 14.2278C93.2729 14.5201 93.4298 14.9472 93.4298 15.5542V17.6223C93.4298 17.982 93.2729 18.1844 92.9367 18.1844C92.6004 18.1844 92.4211 18.0045 92.4211 17.6223V17.3975C92.3314 17.6448 92.1745 17.8247 91.9503 17.9596C91.6813 18.0944 91.4348 18.1619 91.1434 18.1619ZM91.3675 17.42C91.6589 17.42 91.8831 17.3301 92.0624 17.1278C92.2417 16.9255 92.3538 16.6782 92.3538 16.3859V16.2061H92.0624C91.5244 16.2061 91.1434 16.251 90.9416 16.341C90.7399 16.4309 90.6278 16.5658 90.6278 16.7906C90.6278 16.9704 90.695 17.1278 90.8295 17.2627C90.9416 17.3526 91.1209 17.42 91.3675 17.42Z" fill="#005A28"/>
<path d="M97.8006 18.1394C97.442 18.1394 97.2402 17.9595 97.2402 17.5774V12.5418C97.2402 12.1596 97.4196 11.9798 97.8006 11.9798H99.8854C100.558 11.9798 101.073 12.1371 101.432 12.4519C101.791 12.7666 101.97 13.2162 101.97 13.8007C101.97 14.2503 101.858 14.6324 101.611 14.9247C101.365 15.2169 101.029 15.4193 100.603 15.5317C100.894 15.6216 101.141 15.8464 101.32 16.2061L101.97 17.42C102.06 17.5998 102.082 17.7797 102.037 17.9371C101.992 18.0944 101.836 18.1619 101.589 18.1619C101.432 18.1619 101.298 18.1394 101.208 18.0719C101.118 18.0045 101.029 17.8921 100.939 17.7572L100.065 16.1386C99.9526 15.9363 99.8405 15.8014 99.706 15.734C99.5715 15.6665 99.3922 15.6441 99.168 15.6441H98.3386V17.5774C98.361 17.9595 98.1817 18.1394 97.8006 18.1394ZM98.361 14.8123H99.706C100.513 14.8123 100.917 14.4751 100.917 13.8232C100.917 13.1712 100.513 12.834 99.706 12.834H98.361V14.8123Z" fill="#005A28"/>
<path d="M105.22 18.1619C104.749 18.1619 104.323 18.072 103.987 17.8921C103.651 17.7123 103.382 17.465 103.18 17.1278C103.001 16.7906 102.889 16.4084 102.889 15.9588C102.889 15.5092 102.978 15.127 103.158 14.8123C103.337 14.4976 103.584 14.2278 103.897 14.048C104.211 13.8681 104.57 13.7557 104.996 13.7557C105.601 13.7557 106.072 13.9356 106.408 14.3177C106.767 14.6999 106.924 15.217 106.924 15.8689C106.924 16.0937 106.789 16.1836 106.52 16.1836H103.92C104.009 16.9479 104.435 17.3076 105.22 17.3076C105.377 17.3076 105.534 17.2851 105.736 17.2402C105.915 17.1952 106.094 17.1278 106.274 17.0379C106.43 16.9479 106.543 16.9255 106.655 16.9479C106.767 16.9704 106.834 17.0379 106.879 17.1278C106.924 17.2177 106.924 17.3301 106.901 17.4425C106.879 17.5549 106.789 17.6448 106.655 17.7348C106.453 17.8696 106.229 17.9596 105.96 18.027C105.691 18.0944 105.444 18.1619 105.22 18.1619ZM105.063 14.4976C104.749 14.4976 104.48 14.5875 104.301 14.7898C104.099 14.9922 103.987 15.2619 103.942 15.5766H106.072C106.049 15.217 105.96 14.9472 105.78 14.7674C105.601 14.5875 105.354 14.4976 105.063 14.4976Z" fill="#005A28"/>
<path d="M109.95 19.7355C109.636 19.7355 109.345 19.713 109.053 19.6456C108.762 19.5781 108.493 19.4882 108.269 19.3758C108.134 19.3084 108.044 19.2185 108.022 19.1061C108 18.9937 108 18.9037 108.044 18.7913C108.089 18.7014 108.156 18.6115 108.246 18.589C108.336 18.544 108.448 18.544 108.56 18.6115C108.807 18.7464 109.053 18.8138 109.277 18.8588C109.501 18.9037 109.703 18.9262 109.86 18.9262C110.622 18.9262 111.026 18.544 111.026 17.8022V17.2177C110.914 17.465 110.712 17.6448 110.465 17.7797C110.219 17.9146 109.927 17.982 109.636 17.982C109.255 17.982 108.919 17.8921 108.65 17.7123C108.358 17.5324 108.156 17.2851 108 16.9704C107.843 16.6557 107.775 16.2735 107.775 15.8689C107.775 15.4418 107.843 15.0821 108 14.7674C108.156 14.4526 108.381 14.2053 108.65 14.0255C108.919 13.8457 109.255 13.7557 109.636 13.7557C109.95 13.7557 110.219 13.8232 110.465 13.9581C110.712 14.0929 110.891 14.2728 111.003 14.4976V14.3177C111.003 14.1379 111.048 14.003 111.138 13.9131C111.227 13.8232 111.362 13.7782 111.541 13.7782C111.9 13.7782 112.079 13.9581 112.079 14.3177V17.6448C112.079 18.3417 111.9 18.8588 111.541 19.196C111.183 19.5332 110.645 19.7355 109.95 19.7355ZM109.927 17.1503C110.264 17.1503 110.533 17.0379 110.712 16.8131C110.914 16.5883 111.003 16.2735 111.003 15.8689C111.003 15.4642 110.914 15.1495 110.712 14.9247C110.51 14.6999 110.241 14.5875 109.927 14.5875C109.591 14.5875 109.322 14.6999 109.143 14.9247C108.941 15.1495 108.851 15.4642 108.851 15.8689C108.851 16.2735 108.941 16.5883 109.143 16.8131C109.322 17.0379 109.591 17.1503 109.927 17.1503Z" fill="#005A28"/>
<path d="M113.895 12.9914C113.693 12.9914 113.537 12.9464 113.424 12.834C113.312 12.7441 113.245 12.5868 113.245 12.4069C113.245 12.2271 113.312 12.0697 113.424 11.9798C113.537 11.8899 113.693 11.8224 113.895 11.8224C114.321 11.8224 114.523 12.0023 114.523 12.3844C114.545 12.7891 114.321 12.9914 113.895 12.9914ZM113.895 18.1394C113.716 18.1394 113.581 18.0944 113.492 17.982C113.402 17.8696 113.357 17.7347 113.357 17.5549V14.3852C113.357 14.003 113.537 13.8007 113.895 13.8007C114.254 13.8007 114.433 14.003 114.433 14.3852V17.5549C114.433 17.7347 114.388 17.8921 114.299 17.982C114.209 18.0944 114.075 18.1394 113.895 18.1394Z" fill="#005A28"/>
<path d="M117.662 18.1619C117.213 18.1619 116.855 18.072 116.518 17.8921C116.205 17.7123 115.936 17.465 115.756 17.1278C115.577 16.7906 115.487 16.4084 115.487 15.9588C115.487 15.5092 115.577 15.127 115.756 14.7898C115.936 14.4526 116.182 14.2053 116.518 14.0255C116.832 13.8457 117.213 13.7557 117.662 13.7557C118.11 13.7557 118.469 13.8457 118.805 14.0255C119.119 14.2053 119.388 14.4526 119.545 14.7898C119.702 15.127 119.814 15.5092 119.814 15.9588C119.814 16.4084 119.724 16.7906 119.545 17.1278C119.365 17.465 119.119 17.7123 118.805 17.8921C118.491 18.072 118.11 18.1619 117.662 18.1619ZM117.662 17.3526C117.976 17.3526 118.245 17.2402 118.446 16.9929C118.648 16.7681 118.738 16.4084 118.738 15.9588C118.738 15.4867 118.648 15.1495 118.446 14.9247C118.245 14.6999 117.998 14.5875 117.662 14.5875C117.348 14.5875 117.079 14.6999 116.877 14.9247C116.675 15.1495 116.586 15.4867 116.586 15.9588C116.586 16.4084 116.675 16.7681 116.877 16.9929C117.079 17.2177 117.348 17.3526 117.662 17.3526Z" fill="#005A28"/>
<path d="M121.428 18.1394C121.069 18.1394 120.89 17.9596 120.89 17.5774V14.3177C120.89 13.9581 121.069 13.7782 121.405 13.7782C121.764 13.7782 121.921 13.9581 121.921 14.3177V14.4976C122.055 14.2503 122.257 14.0705 122.504 13.9356C122.75 13.8007 123.019 13.7557 123.333 13.7557C124.319 13.7557 124.835 14.3402 124.835 15.4867V17.5774C124.835 17.9371 124.656 18.1394 124.297 18.1394C123.938 18.1394 123.759 17.9596 123.759 17.5774V15.5317C123.759 15.1945 123.692 14.9697 123.58 14.8123C123.445 14.6549 123.266 14.5875 122.997 14.5875C122.683 14.5875 122.436 14.6774 122.235 14.8798C122.033 15.0821 121.943 15.3518 121.943 15.6666V17.5549C121.966 17.9596 121.786 18.1394 121.428 18.1394Z" fill="#005A28"/>
<path d="M127.502 18.1619C127.188 18.1619 126.919 18.0944 126.695 17.982C126.448 17.8696 126.269 17.7123 126.134 17.5099C126 17.3076 125.933 17.0828 125.933 16.8355C125.933 16.5208 126.022 16.2735 126.179 16.0937C126.336 15.9138 126.605 15.779 126.964 15.689C127.322 15.5991 127.816 15.5766 128.421 15.5766H128.712V15.3968C128.712 15.1045 128.645 14.9022 128.533 14.7673C128.398 14.6325 128.197 14.5875 127.905 14.5875C127.748 14.5875 127.569 14.61 127.367 14.6549C127.166 14.6999 126.964 14.7673 126.762 14.8573C126.628 14.9247 126.515 14.9247 126.426 14.8797C126.336 14.8348 126.269 14.7449 126.246 14.6549C126.224 14.5425 126.224 14.4301 126.269 14.3402C126.314 14.2278 126.403 14.1604 126.538 14.0929C126.807 13.9805 127.053 13.9131 127.3 13.8681C127.547 13.8232 127.771 13.8007 127.972 13.8007C128.578 13.8007 129.048 13.9356 129.34 14.2278C129.631 14.5201 129.788 14.9472 129.788 15.5542V17.6223C129.788 17.982 129.631 18.1844 129.295 18.1844C128.959 18.1844 128.779 18.0045 128.779 17.6223V17.3975C128.69 17.6448 128.533 17.8247 128.309 17.9596C128.04 18.0944 127.793 18.1619 127.502 18.1619ZM127.726 17.42C128.017 17.42 128.241 17.3301 128.421 17.1278C128.6 16.9255 128.712 16.6782 128.712 16.3859V16.2061H128.421C127.883 16.2061 127.502 16.251 127.3 16.341C127.098 16.4309 126.986 16.5658 126.986 16.7906C126.986 16.9704 127.053 17.1278 127.188 17.2627C127.3 17.3526 127.479 17.42 127.726 17.42Z" fill="#005A28"/>
<path d="M131.537 18.1394C131.178 18.1394 130.999 17.9596 130.999 17.5774V12.4519C130.999 12.0922 131.178 11.9124 131.537 11.9124C131.896 11.9124 132.075 12.0922 132.075 12.4519V17.5999C132.075 17.9596 131.896 18.1394 131.537 18.1394Z" fill="#005A28"/>
<path d="M57.5189 27.9858C57.362 27.9858 57.2275 27.9408 57.1827 27.8284C57.1155 27.716 57.1155 27.5811 57.2051 27.4238L59.4692 22.3432C59.514 22.2083 59.6037 22.1184 59.6709 22.0734C59.7382 22.0285 59.8502 21.9835 59.9623 21.9835C60.052 21.9835 60.1641 22.006 60.2313 22.0734C60.321 22.1409 60.3882 22.2308 60.4331 22.3432L62.6971 27.4238C62.7643 27.5811 62.7868 27.716 62.7195 27.8284C62.6523 27.9408 62.5402 27.9858 62.3833 27.9858C62.2712 27.9858 62.1591 27.9633 62.0919 27.8958C62.0246 27.8284 61.9574 27.7385 61.8901 27.6036L61.397 26.4796H58.4156L57.9449 27.6036C57.9 27.7385 57.8328 27.8284 57.7655 27.8958C57.7207 27.9633 57.631 27.9858 57.5189 27.9858ZM59.9175 22.9951L58.7294 25.7827H61.1056L59.9175 22.9951Z" fill="#005A28"/>
<path d="M64.1544 27.9858C63.8854 27.9858 63.7285 27.8509 63.7285 27.5587V24.2091C63.7285 23.9168 63.863 23.782 64.132 23.782C64.401 23.782 64.5355 23.9168 64.5355 24.2091V24.5013C64.6476 24.2765 64.8269 24.0967 65.0511 23.9618C65.2752 23.8269 65.5218 23.7595 65.8132 23.7595C66.4409 23.7595 66.8444 24.0292 67.0237 24.5688C67.1582 24.3215 67.3375 24.1192 67.5841 23.9618C67.8307 23.8044 68.0997 23.737 68.3911 23.737C69.3102 23.737 69.7585 24.2765 69.7585 25.3781V27.5362C69.7585 27.8284 69.624 27.9633 69.3326 27.9633C69.0636 27.9633 68.9067 27.8284 68.9067 27.5362V25.423C68.9067 25.0858 68.8394 24.8161 68.7273 24.6587C68.6153 24.5013 68.4135 24.4114 68.1445 24.4114C67.8307 24.4114 67.6065 24.5238 67.4272 24.7261C67.2479 24.9509 67.1582 25.2432 67.1582 25.6029V27.5137C67.1582 27.8059 67.0237 27.9408 66.7323 27.9408C66.4409 27.9408 66.3064 27.8059 66.3064 27.5137V25.4005C66.3064 25.0633 66.2391 24.7936 66.1271 24.6362C66.015 24.4789 65.8132 24.3889 65.5442 24.3889C65.2304 24.3889 65.0062 24.5013 64.8269 24.7037C64.6476 24.9285 64.5579 25.2207 64.5579 25.5804V27.4912C64.5803 27.8509 64.4458 27.9858 64.1544 27.9858Z" fill="#005A28"/>
<path d="M72.9859 28.0082C72.3135 28.0082 71.7979 27.8284 71.4168 27.4462C71.0357 27.0641 70.834 26.547 70.834 25.8951C70.834 25.468 70.9237 25.1083 71.0806 24.7936C71.2599 24.4788 71.4841 24.2316 71.7755 24.0517C72.0669 23.8719 72.4255 23.7819 72.8066 23.7819C73.367 23.7819 73.8153 23.9618 74.1292 24.3215C74.443 24.6812 74.6223 25.1757 74.6223 25.8052C74.6223 25.985 74.5103 26.0974 74.2861 26.0974H71.641C71.7082 26.9517 72.1565 27.3788 72.9859 27.3788C73.1429 27.3788 73.3222 27.3563 73.5015 27.3114C73.6808 27.2664 73.8602 27.199 74.0395 27.0866C74.1516 27.0191 74.2637 26.9966 74.3533 27.0191C74.443 27.0416 74.5103 27.0866 74.5327 27.154C74.5551 27.2214 74.5775 27.3114 74.5551 27.4013C74.5327 27.4912 74.4654 27.5811 74.3533 27.6486C74.174 27.7834 73.9498 27.8734 73.6808 27.9408C73.4567 27.9633 73.2101 28.0082 72.9859 28.0082ZM72.8739 24.3664C72.5152 24.3664 72.2462 24.4788 72.0445 24.7036C71.8427 24.9284 71.7082 25.2207 71.6634 25.5804H73.9498C73.9274 25.1982 73.8378 24.906 73.6584 24.7036C73.4567 24.4564 73.1877 24.3664 72.8739 24.3664ZM73.1653 23.2649C73.1204 23.3548 73.0308 23.3998 72.9411 23.3773C72.8514 23.3773 72.7618 23.3323 72.7169 23.2649C72.6497 23.1975 72.6497 23.1075 72.6945 22.9951L73.367 21.6913C73.4119 21.5789 73.5015 21.5114 73.5912 21.489C73.6808 21.4665 73.7705 21.489 73.8602 21.5339C73.9498 21.5789 74.0171 21.6463 74.0395 21.7362C74.0619 21.8262 74.0619 21.9161 73.9947 22.006L73.1653 23.2649Z" fill="#005A28"/>
<path d="M76.1017 27.9858C75.8103 27.9858 75.6758 27.8509 75.6758 27.5586V24.2091C75.6758 23.9168 75.8103 23.7819 76.0793 23.7819C76.3483 23.7819 76.4828 23.9168 76.4828 24.2091V24.5688C76.5948 24.3215 76.7518 24.1191 76.9983 23.9843C77.2225 23.8494 77.4915 23.7819 77.8277 23.7595C78.0295 23.737 78.1416 23.8494 78.164 24.0967C78.1864 24.344 78.0743 24.4788 77.8053 24.5013L77.6484 24.5238C76.9087 24.5912 76.5276 24.9734 76.5276 25.6703V27.5811C76.5276 27.8509 76.3931 27.9858 76.1017 27.9858Z" fill="#005A28"/>
<path d="M79.33 22.9277C79.1731 22.9277 79.0386 22.8827 78.9489 22.7928C78.8593 22.7029 78.8145 22.5905 78.8145 22.4331C78.8145 22.1184 78.9938 21.961 79.33 21.961C79.6663 21.961 79.8456 22.1184 79.8456 22.4331C79.8456 22.7478 79.6887 22.9277 79.33 22.9277ZM79.33 27.9858C79.061 27.9858 78.9041 27.8284 78.9041 27.5362V24.2765C78.9041 23.9843 79.0386 23.8269 79.33 23.8269C79.6214 23.8269 79.7559 23.9843 79.7559 24.2765V27.5137C79.7559 27.8284 79.6214 27.9858 79.33 27.9858Z" fill="#005A28"/>
<path d="M82.872 28.0083C82.446 28.0083 82.0874 27.9183 81.796 27.7385C81.4822 27.5586 81.258 27.3114 81.1011 26.9966C80.9442 26.6819 80.8545 26.2997 80.8545 25.8726C80.8545 25.2207 81.0338 24.7036 81.4149 24.344C81.7736 23.9618 82.2667 23.782 82.8944 23.782C83.0961 23.782 83.2979 23.8044 83.4996 23.8719C83.7238 23.9393 83.9031 24.0292 84.1049 24.1641C84.1945 24.2091 84.2394 24.299 84.2618 24.3664C84.2842 24.4564 84.2618 24.5238 84.2169 24.6137C84.1721 24.6812 84.1049 24.7486 84.0376 24.7711C83.9704 24.7936 83.8807 24.7711 83.7686 24.7261C83.6341 24.6362 83.4996 24.5688 83.3651 24.5238C83.2306 24.4788 83.0961 24.4564 82.9616 24.4564C82.5581 24.4564 82.2667 24.5912 82.0426 24.8385C81.8184 25.0858 81.7287 25.4455 81.7287 25.8951C81.7287 26.3447 81.8408 26.7044 82.0426 26.9742C82.2667 27.2439 82.5581 27.3563 82.9616 27.3563C83.0961 27.3563 83.2306 27.3338 83.3651 27.2889C83.4996 27.2439 83.6341 27.1765 83.7686 27.0866C83.8583 27.0416 83.9479 27.0191 84.0376 27.0416C84.1273 27.0641 84.1721 27.1315 84.1945 27.199C84.2394 27.2664 84.2393 27.3563 84.2169 27.4462C84.1945 27.5362 84.1497 27.6036 84.06 27.6486C83.8807 27.7835 83.6789 27.8734 83.4772 27.9183C83.2755 27.9633 83.0737 28.0083 82.872 28.0083Z" fill="#005A28"/>
<path d="M86.3691 28.0083C86.0777 28.0083 85.8311 27.9633 85.6069 27.8509C85.3828 27.7385 85.2034 27.5811 85.0689 27.4013C84.9344 27.2215 84.8672 26.9966 84.8672 26.7494C84.8672 26.4571 84.9344 26.2098 85.0914 26.03C85.2483 25.8501 85.4948 25.7377 85.8535 25.6478C86.2122 25.5579 86.6829 25.5354 87.2881 25.5354H87.5796V25.3106C87.5796 24.9959 87.5123 24.7711 87.3778 24.6137C87.2433 24.4564 87.0191 24.4114 86.7277 24.4114C86.5484 24.4114 86.3691 24.4339 86.1673 24.4789C85.9656 24.5238 85.7862 24.5913 85.5621 24.7037C85.45 24.7486 85.3379 24.7711 85.2707 24.7261C85.2034 24.6812 85.1362 24.6362 85.1138 24.5463C85.0913 24.4564 85.0913 24.3665 85.1138 24.2765C85.1362 24.1866 85.2258 24.1192 85.3155 24.0742C85.5621 23.9618 85.8087 23.8719 86.0328 23.8269C86.2794 23.782 86.5036 23.737 86.7053 23.737C87.2657 23.737 87.6692 23.8719 87.9382 24.1416C88.2072 24.4114 88.3417 24.8161 88.3417 25.3781V27.5362C88.3417 27.8284 88.2072 27.9633 87.9382 27.9633C87.6692 27.9633 87.5347 27.8284 87.5347 27.5362V27.2215C87.4451 27.4463 87.2881 27.6486 87.064 27.7835C86.8398 27.9183 86.6605 28.0083 86.3691 28.0083ZM86.526 27.4013C86.8174 27.4013 87.0864 27.2889 87.2881 27.0866C87.4899 26.8842 87.5796 26.6145 87.5796 26.2773V26.0525H87.3106C86.9071 26.0525 86.5932 26.075 86.3467 26.1199C86.1225 26.1649 85.9432 26.2323 85.8535 26.3222C85.7638 26.4122 85.6966 26.547 85.6966 26.7044C85.6966 26.9067 85.7638 27.0866 85.9207 27.2215C86.0777 27.3339 86.2794 27.4013 86.526 27.4013Z" fill="#005A28"/>
<path d="M92.5333 27.9183C92.2419 27.9183 92.085 27.761 92.085 27.4687V22.4106C92.085 22.1184 92.2195 21.961 92.5109 21.961C92.8023 21.961 92.9368 22.1184 92.9368 22.4106V27.154H95.5147C95.7612 27.154 95.8957 27.2664 95.8957 27.5137C95.8957 27.761 95.7612 27.8958 95.5147 27.8958H92.5333V27.9183Z" fill="#005A28"/>
<path d="M98.0253 28.0083C97.7339 28.0083 97.4873 27.9633 97.2632 27.8509C97.039 27.7385 96.8597 27.5811 96.7252 27.4013C96.5907 27.2215 96.5234 26.9966 96.5234 26.7494C96.5234 26.4571 96.5907 26.2098 96.7476 26.03C96.9045 25.8501 97.1511 25.7377 97.5098 25.6478C97.8684 25.5579 98.3392 25.5354 98.9444 25.5354H99.2358V25.3106C99.2358 24.9959 99.1686 24.7711 99.0341 24.6137C98.8996 24.4564 98.6754 24.4114 98.384 24.4114C98.2047 24.4114 98.0253 24.4339 97.8236 24.4789C97.6218 24.5238 97.4425 24.5913 97.2183 24.7037C97.1063 24.7486 96.9942 24.7711 96.9269 24.7261C96.8597 24.6812 96.7924 24.6362 96.77 24.5463C96.7476 24.4564 96.7476 24.3665 96.77 24.2765C96.7924 24.1866 96.8821 24.1192 96.9718 24.0742C97.2183 23.9618 97.4649 23.8719 97.6891 23.8269C97.9357 23.782 98.1598 23.737 98.3616 23.737C98.922 23.737 99.3255 23.8719 99.5945 24.1416C99.8635 24.4114 99.998 24.8161 99.998 25.3781V27.5362C99.998 27.8284 99.8635 27.9633 99.5945 27.9633C99.3255 27.9633 99.191 27.8284 99.191 27.5362V27.2215C99.1013 27.4463 98.9444 27.6486 98.7202 27.7835C98.4961 27.9183 98.3392 28.0083 98.0253 28.0083ZM98.2047 27.4013C98.4961 27.4013 98.7651 27.2889 98.9668 27.0866C99.1686 26.8842 99.2582 26.6145 99.2582 26.2773V26.0525H98.9892C98.5857 26.0525 98.2719 26.075 98.0253 26.1199C97.7787 26.1649 97.6218 26.2323 97.5322 26.3222C97.4425 26.4122 97.3753 26.547 97.3753 26.7044C97.3753 26.9067 97.4425 27.0866 97.5994 27.2215C97.7563 27.3339 97.9357 27.4013 98.2047 27.4013Z" fill="#005A28"/>
<path d="M103.069 28.0083C102.553 28.0083 102.172 27.8734 101.925 27.6036C101.679 27.3339 101.544 26.9517 101.544 26.4571V24.4789H101.051C100.827 24.4789 100.692 24.3665 100.692 24.1417C100.692 23.9169 100.804 23.8044 101.051 23.8044H101.544V22.9502C101.544 22.658 101.679 22.5231 101.97 22.5231C102.239 22.5231 102.396 22.658 102.396 22.9502V23.8044H103.382C103.606 23.8044 103.741 23.9169 103.741 24.1417C103.741 24.3665 103.629 24.4789 103.382 24.4789H102.396V26.3897C102.396 26.6819 102.463 26.9067 102.575 27.0641C102.687 27.2215 102.912 27.2889 103.181 27.2889C103.27 27.2889 103.36 27.2889 103.45 27.2664C103.517 27.2439 103.584 27.2439 103.651 27.2215C103.719 27.2215 103.763 27.2439 103.808 27.2889C103.853 27.3339 103.875 27.4013 103.875 27.5362C103.875 27.6261 103.853 27.716 103.831 27.7835C103.808 27.8509 103.741 27.8959 103.674 27.9184C103.607 27.9408 103.517 27.9633 103.405 27.9858C103.27 27.9858 103.158 28.0083 103.069 28.0083Z" fill="#005A28"/>
<path d="M104.997 22.9277C104.84 22.9277 104.706 22.8828 104.616 22.7928C104.526 22.7029 104.481 22.5905 104.481 22.4331C104.481 22.1184 104.661 21.9611 104.997 21.9611C105.333 21.9611 105.513 22.1184 105.513 22.4331C105.513 22.7479 105.356 22.9277 104.997 22.9277ZM104.997 27.9858C104.728 27.9858 104.571 27.8284 104.571 27.5362V24.2765C104.571 23.9843 104.706 23.8269 104.997 23.8269C105.288 23.8269 105.423 23.9843 105.423 24.2765V27.5137C105.423 27.8284 105.288 27.9858 104.997 27.9858Z" fill="#005A28"/>
<path d="M107.149 27.9858C106.88 27.9858 106.723 27.8509 106.723 27.5586V24.2091C106.723 23.9168 106.857 23.7819 107.126 23.7819C107.395 23.7819 107.53 23.9168 107.53 24.2091V24.5238C107.664 24.2765 107.866 24.0967 108.112 23.9618C108.359 23.8269 108.628 23.7595 108.919 23.7595C109.883 23.7595 110.354 24.299 110.354 25.4005V27.5586C110.354 27.8509 110.22 27.9858 109.928 27.9858C109.637 27.9858 109.502 27.8509 109.502 27.5586V25.468C109.502 25.1083 109.435 24.861 109.301 24.7036C109.166 24.5463 108.942 24.4563 108.673 24.4563C108.337 24.4563 108.068 24.5688 107.866 24.7711C107.664 24.9959 107.552 25.2656 107.552 25.6253V27.5586C107.574 27.8509 107.44 27.9858 107.149 27.9858Z" fill="#005A28"/>
<path d="M112.977 28.0083C112.685 28.0083 112.439 27.9633 112.214 27.8509C111.99 27.7385 111.811 27.5811 111.676 27.4013C111.542 27.2215 111.475 26.9966 111.475 26.7494C111.475 26.4571 111.542 26.2098 111.699 26.03C111.856 25.8501 112.102 25.7377 112.461 25.6478C112.82 25.5579 113.29 25.5354 113.896 25.5354H114.187V25.3106C114.187 24.9959 114.12 24.7711 113.985 24.6137C113.851 24.4564 113.627 24.4114 113.335 24.4114C113.156 24.4114 112.977 24.4339 112.775 24.4789C112.573 24.5238 112.394 24.5913 112.17 24.7037C112.057 24.7486 111.945 24.7711 111.878 24.7261C111.811 24.6812 111.744 24.6362 111.721 24.5463C111.699 24.4564 111.699 24.3665 111.721 24.2765C111.744 24.1866 111.833 24.1192 111.923 24.0742C112.17 23.9618 112.416 23.8719 112.64 23.8269C112.887 23.782 113.111 23.737 113.313 23.737C113.873 23.737 114.277 23.8719 114.546 24.1416C114.815 24.4114 114.949 24.8161 114.949 25.3781V27.5362C114.949 27.8284 114.815 27.9633 114.546 27.9633C114.277 27.9633 114.142 27.8284 114.142 27.5362V27.2215C114.052 27.4463 113.896 27.6486 113.671 27.7835C113.447 27.9183 113.268 28.0083 112.977 28.0083ZM113.133 27.4013C113.425 27.4013 113.694 27.2889 113.896 27.0866C114.097 26.8842 114.187 26.6145 114.187 26.2773V26.0525H113.918C113.514 26.0525 113.201 26.075 112.954 26.1199C112.708 26.1649 112.551 26.2323 112.461 26.3222C112.371 26.4122 112.304 26.547 112.304 26.7044C112.304 26.9067 112.371 27.0866 112.528 27.2215C112.685 27.3339 112.887 27.4013 113.133 27.4013Z" fill="#005A28"/>
<path d="M119.567 29.4919C119.411 29.4919 119.298 29.4245 119.254 29.3121C119.186 29.1997 119.209 29.0648 119.276 28.9075L119.769 27.8059L118.29 24.3439C118.222 24.1866 118.222 24.0517 118.29 23.9393C118.357 23.8269 118.469 23.7595 118.671 23.7595C118.76 23.7595 118.85 23.7819 118.917 23.8269C118.985 23.8719 119.029 23.9618 119.097 24.0967L120.24 26.9292L121.406 24.0967C121.45 23.9618 121.518 23.8719 121.585 23.8269C121.652 23.7819 121.742 23.7595 121.854 23.7595C122.011 23.7595 122.1 23.8269 122.168 23.9393C122.213 24.0517 122.213 24.1866 122.168 24.3215L120.083 29.1323C120.038 29.2671 119.971 29.3571 119.904 29.402C119.769 29.4695 119.68 29.4919 119.567 29.4919Z" fill="#005A28"/>
<path d="M127.323 28.0083C126.65 28.0083 126.135 27.8284 125.754 27.4462C125.373 27.0641 125.171 26.547 125.171 25.8951C125.171 25.468 125.261 25.1083 125.417 24.7936C125.597 24.4788 125.821 24.2316 126.112 24.0517C126.404 23.8719 126.762 23.782 127.144 23.782C127.704 23.782 128.152 23.9618 128.466 24.3215C128.78 24.6812 128.959 25.1757 128.959 25.8052C128.959 25.985 128.847 26.0974 128.623 26.0974H125.978C126.045 26.9517 126.493 27.3788 127.323 27.3788C127.48 27.3788 127.659 27.3563 127.838 27.3114C128.018 27.2664 128.197 27.199 128.376 27.0866C128.489 27.0191 128.601 26.9966 128.69 27.0191C128.78 27.0416 128.847 27.0866 128.87 27.154C128.892 27.2214 128.914 27.3114 128.892 27.4013C128.87 27.4912 128.802 27.5811 128.69 27.6486C128.511 27.7835 128.287 27.8734 128.018 27.9408C127.771 27.9633 127.547 28.0083 127.323 28.0083ZM127.188 24.3664C126.83 24.3664 126.561 24.4788 126.359 24.7036C126.157 24.9284 126.023 25.2207 125.978 25.5804H128.264C128.242 25.1982 128.152 24.906 127.973 24.7036C127.771 24.4564 127.525 24.3664 127.188 24.3664Z" fill="#005A28"/>
<path d="M130.417 27.9858C130.148 27.9858 129.991 27.8509 129.991 27.5587V22.3882C129.991 22.0959 130.126 21.9611 130.417 21.9611C130.709 21.9611 130.843 22.0959 130.843 22.3882V27.5587C130.843 27.8509 130.709 27.9858 130.417 27.9858Z" fill="#005A28"/>
<path d="M137.209 28.0083C136.604 28.0083 136.111 27.8959 135.685 27.6486C135.259 27.4013 134.945 27.0641 134.721 26.592C134.497 26.1424 134.385 25.6029 134.385 24.9734C134.385 24.344 134.497 23.8269 134.721 23.3773C134.945 22.9277 135.281 22.568 135.685 22.3207C136.111 22.0735 136.626 21.9611 137.209 21.9611C137.545 21.9611 137.859 22.006 138.151 22.0959C138.465 22.1859 138.711 22.3207 138.935 22.4781C139.047 22.5455 139.137 22.6579 139.137 22.7479C139.159 22.8603 139.137 22.9502 139.092 23.0401C139.047 23.13 138.958 23.175 138.868 23.22C138.778 23.2424 138.666 23.22 138.532 23.13C138.352 22.9952 138.128 22.8828 137.927 22.8153C137.702 22.7479 137.478 22.7254 137.232 22.7254C136.604 22.7254 136.111 22.9277 135.775 23.3099C135.438 23.692 135.281 24.2541 135.281 24.9734C135.281 25.6928 135.438 26.2548 135.775 26.637C136.111 27.0416 136.582 27.2215 137.232 27.2215C137.478 27.2215 137.702 27.199 137.927 27.1315C138.151 27.0641 138.375 26.9517 138.554 26.8168C138.666 26.7494 138.778 26.7044 138.89 26.7269C139.003 26.7494 139.047 26.8168 139.115 26.8843C139.159 26.9742 139.182 27.0641 139.159 27.154C139.137 27.2664 139.092 27.3563 138.98 27.4238C138.756 27.6036 138.465 27.7385 138.173 27.8509C137.882 27.9633 137.545 28.0083 137.209 28.0083Z" fill="#005A28"/>
<path d="M141.4 28.0083C141.109 28.0083 140.862 27.9633 140.638 27.8509C140.414 27.7385 140.235 27.5811 140.1 27.4013C139.966 27.2215 139.898 26.9966 139.898 26.7494C139.898 26.4571 139.966 26.2098 140.123 26.03C140.28 25.8501 140.526 25.7377 140.885 25.6478C141.243 25.5579 141.714 25.5354 142.319 25.5354H142.611V25.3106C142.611 24.9959 142.544 24.7711 142.409 24.6137C142.275 24.4564 142.05 24.4114 141.759 24.4114C141.58 24.4114 141.4 24.4339 141.199 24.4789C140.997 24.5238 140.817 24.5913 140.593 24.7037C140.481 24.7486 140.369 24.7711 140.302 24.7261C140.235 24.6812 140.167 24.6362 140.145 24.5463C140.123 24.4564 140.123 24.3665 140.145 24.2765C140.167 24.1866 140.257 24.1192 140.347 24.0742C140.593 23.9618 140.84 23.8719 141.064 23.8269C141.311 23.782 141.535 23.737 141.737 23.737C142.297 23.737 142.7 23.8719 142.969 24.1416C143.238 24.4114 143.373 24.8161 143.373 25.3781V27.5362C143.373 27.8284 143.238 27.9633 142.969 27.9633C142.7 27.9633 142.566 27.8284 142.566 27.5362V27.2215C142.476 27.4463 142.319 27.6486 142.095 27.7835C141.871 27.9183 141.714 28.0083 141.4 28.0083ZM141.58 27.4013C141.871 27.4013 142.14 27.2889 142.342 27.0866C142.544 26.8842 142.633 26.6145 142.633 26.2773V26.0525H142.364C141.961 26.0525 141.647 26.075 141.4 26.1199C141.154 26.1649 140.997 26.2323 140.907 26.3222C140.818 26.4122 140.75 26.547 140.75 26.7044C140.75 26.9067 140.818 27.0866 140.974 27.2215C141.109 27.3339 141.311 27.4013 141.58 27.4013Z" fill="#005A28"/>
<path d="M145.144 27.9858C144.852 27.9858 144.718 27.8509 144.718 27.5586V24.2091C144.718 23.9168 144.852 23.7819 145.121 23.7819C145.39 23.7819 145.525 23.9168 145.525 24.2091V24.5688C145.637 24.3215 145.794 24.1191 146.04 23.9843C146.264 23.8494 146.533 23.7819 146.87 23.7595C147.071 23.737 147.184 23.8494 147.206 24.0967C147.228 24.344 147.116 24.4788 146.847 24.5013L146.69 24.5238C145.951 24.5912 145.57 24.9734 145.57 25.6703V27.5811C145.57 27.8509 145.413 27.9858 145.144 27.9858Z" fill="#005A28"/>
<path d="M148.372 22.9277C148.215 22.9277 148.081 22.8827 147.991 22.7928C147.901 22.7029 147.856 22.5905 147.856 22.4331C147.856 22.1184 148.036 21.961 148.372 21.961C148.708 21.961 148.888 22.1184 148.888 22.4331C148.888 22.7478 148.708 22.9277 148.372 22.9277ZM148.372 27.9858C148.103 27.9858 147.946 27.8284 147.946 27.5362V24.2765C147.946 23.9843 148.081 23.8269 148.372 23.8269C148.663 23.8269 148.798 23.9843 148.798 24.2765V27.5137C148.798 27.8284 148.663 27.9858 148.372 27.9858Z" fill="#005A28"/>
<path d="M152.294 28.0083C151.981 28.0083 151.712 27.9408 151.488 27.8059C151.241 27.6711 151.062 27.4912 150.95 27.2439V27.5587C150.95 27.8509 150.815 27.9858 150.546 27.9858C150.277 27.9858 150.12 27.8509 150.12 27.5587V22.3882C150.12 22.0959 150.255 21.9611 150.546 21.9611C150.837 21.9611 150.972 22.0959 150.972 22.3882V24.5013C151.084 24.2765 151.263 24.0967 151.51 23.9618C151.757 23.8269 152.025 23.7595 152.317 23.7595C152.676 23.7595 152.989 23.8494 153.258 24.0292C153.527 24.2091 153.729 24.4564 153.886 24.7711C154.043 25.0858 154.11 25.468 154.11 25.8951C154.11 26.3222 154.043 26.7044 153.886 27.0191C153.729 27.3339 153.527 27.5811 153.258 27.761C152.967 27.9183 152.653 28.0083 152.294 28.0083ZM152.093 27.3563C152.451 27.3563 152.72 27.2215 152.922 26.9742C153.124 26.7269 153.236 26.3672 153.236 25.8951C153.236 25.423 153.124 25.0633 152.922 24.8161C152.72 24.5688 152.429 24.4339 152.093 24.4339C151.734 24.4339 151.465 24.5688 151.263 24.8161C151.062 25.0633 150.95 25.423 150.95 25.8951C150.95 26.3672 151.062 26.7269 151.263 26.9742C151.443 27.2215 151.734 27.3563 152.093 27.3563Z" fill="#005A28"/>
<path d="M157.07 28.0083C156.397 28.0083 155.882 27.8284 155.501 27.4462C155.12 27.0641 154.918 26.547 154.918 25.8951C154.918 25.468 155.008 25.1083 155.165 24.7936C155.344 24.4788 155.568 24.2316 155.859 24.0517C156.151 23.8719 156.51 23.782 156.891 23.782C157.451 23.782 157.899 23.9618 158.213 24.3215C158.527 24.6812 158.706 25.1757 158.706 25.8052C158.706 25.985 158.594 26.0974 158.37 26.0974H155.725C155.792 26.9517 156.241 27.3788 157.07 27.3788C157.227 27.3788 157.406 27.3563 157.585 27.3114C157.765 27.2664 157.944 27.199 158.123 27.0866C158.236 27.0191 158.348 26.9966 158.437 27.0191C158.527 27.0416 158.594 27.0866 158.617 27.154C158.639 27.2214 158.661 27.3114 158.639 27.4013C158.617 27.4912 158.549 27.5811 158.437 27.6486C158.258 27.7835 158.034 27.8734 157.765 27.9408C157.541 27.9633 157.294 28.0083 157.07 28.0083ZM156.958 24.3664C156.599 24.3664 156.33 24.4788 156.128 24.7036C155.927 24.9284 155.792 25.2207 155.747 25.5804H158.034C158.011 25.1982 157.922 24.906 157.742 24.7036C157.541 24.4564 157.272 24.3664 156.958 24.3664Z" fill="#005A28"/>
<path d="M57.9893 37.1577C57.6979 37.1577 57.541 37.0004 57.541 36.7081V31.6501C57.541 31.3578 57.6755 31.2005 57.9669 31.2005C58.2583 31.2005 58.3928 31.3578 58.3928 31.6501V36.3934H60.9707C61.2173 36.3934 61.3518 36.5058 61.3518 36.7531C61.3518 37.0004 61.2173 37.1353 60.9707 37.1353H57.9893V37.1577Z" fill="#005A28"/>
<path d="M62.5625 32.1446C62.4055 32.1446 62.271 32.0997 62.1814 32.0098C62.0917 31.9198 62.0469 31.8074 62.0469 31.6501C62.0469 31.3353 62.2262 31.178 62.5625 31.178C62.8987 31.178 63.078 31.3353 63.078 31.6501C63.078 31.9648 62.8987 32.1446 62.5625 32.1446ZM62.5625 37.2027C62.2935 37.2027 62.1365 37.0453 62.1365 36.7531V33.4935C62.1365 33.2012 62.271 33.0438 62.5625 33.0438C62.8539 33.0438 62.9884 33.2012 62.9884 33.4935V36.7306C62.9884 37.0453 62.8314 37.2027 62.5625 37.2027Z" fill="#005A28"/>
<path d="M66.441 37.2252C66.1272 37.2252 65.8582 37.1577 65.634 37.0229C65.3874 36.888 65.2081 36.7081 65.096 36.4609V36.7756C65.096 37.0678 64.9615 37.2027 64.6925 37.2027C64.4235 37.2027 64.2666 37.0678 64.2666 36.7756V31.6051C64.2666 31.3129 64.4011 31.178 64.6925 31.178C64.9839 31.178 65.1184 31.3129 65.1184 31.6051V33.7183C65.2305 33.4935 65.4098 33.3136 65.6564 33.1787C65.903 33.0438 66.172 32.9764 66.4634 32.9764C66.8221 32.9764 67.1359 33.0663 67.4049 33.2462C67.6739 33.426 67.8756 33.6733 68.0325 33.988C68.1895 34.3027 68.2567 34.6849 68.2567 35.112C68.2567 35.5392 68.1895 35.9213 68.0325 36.2361C67.8756 36.5508 67.6739 36.7981 67.4049 36.9779C67.1135 37.1353 66.7996 37.2252 66.441 37.2252ZM66.2168 36.5733C66.5755 36.5733 66.8445 36.4384 67.0462 36.1911C67.248 35.9438 67.3601 35.5841 67.3601 35.112C67.3601 34.6399 67.248 34.2803 67.0462 34.033C66.8445 33.7857 66.5531 33.6508 66.2168 33.6508C65.8582 33.6508 65.5892 33.7857 65.3874 34.033C65.1857 34.2803 65.0736 34.6399 65.0736 35.112C65.0736 35.5841 65.1857 35.9438 65.3874 36.1911C65.5892 36.4384 65.8806 36.5733 66.2168 36.5733Z" fill="#005A28"/>
<path d="M69.6681 37.2027C69.3767 37.2027 69.2422 37.0678 69.2422 36.7756V33.426C69.2422 33.1338 69.3767 32.9989 69.6457 32.9989C69.9147 32.9989 70.0492 33.1338 70.0492 33.426V33.7857C70.1613 33.5384 70.3182 33.3361 70.5647 33.2012C70.7889 33.0663 71.0579 32.9989 71.3942 32.9764C71.5959 32.9539 71.708 33.0663 71.7304 33.3136C71.7528 33.5609 71.6407 33.6958 71.3717 33.7182L71.2148 33.7407C70.4751 33.8082 70.094 34.1903 70.094 34.8872V36.7981C70.094 37.0678 69.9595 37.2027 69.6681 37.2027Z" fill="#005A28"/>
<path d="M74.2867 37.2252C73.6142 37.2252 73.0987 37.0453 72.7176 36.6632C72.3365 36.281 72.1348 35.764 72.1348 35.112C72.1348 34.6849 72.2244 34.3252 72.3813 34.0105C72.5607 33.6958 72.7848 33.4485 73.0763 33.2687C73.3677 33.0888 73.7263 32.9989 74.1074 32.9989C74.6678 32.9989 75.1161 33.1787 75.43 33.5384C75.7438 33.8981 75.9231 34.3927 75.9231 35.0221C75.9231 35.202 75.811 35.3144 75.5869 35.3144H72.9418C73.009 36.1686 73.4573 36.5957 74.2867 36.5957C74.4436 36.5957 74.623 36.5733 74.8023 36.5283C74.9816 36.4833 75.161 36.4159 75.3403 36.3035C75.4524 36.2361 75.5645 36.2136 75.6541 36.2361C75.7438 36.2585 75.811 36.3035 75.8334 36.3709C75.8559 36.4384 75.8783 36.5283 75.8559 36.6182C75.8335 36.7081 75.7662 36.7981 75.6541 36.8655C75.4748 37.0004 75.2506 37.0903 74.9816 37.1577C74.7575 37.1802 74.5109 37.2252 74.2867 37.2252ZM74.1746 33.5834C73.816 33.5834 73.547 33.6958 73.3452 33.9206C73.1435 34.1454 73.009 34.4376 72.9642 34.7973H75.2506C75.2282 34.4151 75.1385 34.1229 74.9592 33.9206C74.7575 33.6958 74.4885 33.5834 74.1746 33.5834Z" fill="#005A28"/>
<path d="M80.765 37.2252C80.4063 37.2252 80.0925 37.1353 79.8235 36.9779C79.5545 36.7981 79.3528 36.5733 79.1958 36.2361C79.0389 35.9213 78.9717 35.5392 78.9717 35.112C78.9717 34.6849 79.0389 34.3027 79.1958 33.988C79.3528 33.6733 79.5545 33.426 79.8235 33.2462C80.0925 33.0663 80.4063 32.9764 80.765 32.9764C81.0788 32.9764 81.3478 33.0438 81.572 33.1787C81.8185 33.3136 81.9979 33.4935 82.11 33.7183V31.6051C82.11 31.3129 82.2445 31.178 82.5359 31.178C82.8273 31.178 82.9618 31.3129 82.9618 31.6051V36.7756C82.9618 37.0678 82.8273 37.2027 82.5359 37.2027C82.2445 37.2027 82.11 37.0678 82.11 36.7756V36.4609C81.9979 36.6857 81.7961 36.888 81.572 37.0229C81.3478 37.1577 81.0788 37.2252 80.765 37.2252ZM80.9891 36.5733C81.3254 36.5733 81.6168 36.4384 81.8185 36.1911C82.0203 35.9438 82.1324 35.5841 82.1324 35.112C82.1324 34.6399 82.0203 34.2803 81.8185 34.033C81.6168 33.7857 81.3254 33.6508 80.9891 33.6508C80.6305 33.6508 80.3615 33.7857 80.1373 34.033C79.9356 34.2803 79.8235 34.6399 79.8235 35.112C79.8235 35.5841 79.9356 35.9438 80.1373 36.1911C80.3615 36.4384 80.6305 36.5733 80.9891 36.5733Z" fill="#005A28"/>
<path d="M86.1442 37.2252C85.4717 37.2252 84.9561 37.0453 84.575 36.6632C84.1939 36.281 83.9922 35.764 83.9922 35.112C83.9922 34.6849 84.0819 34.3252 84.2388 34.0105C84.4181 33.6958 84.6423 33.4485 84.9337 33.2687C85.2251 33.0888 85.5837 32.9989 85.9648 32.9989C86.5252 32.9989 86.9736 33.1787 87.2874 33.5384C87.6012 33.8981 87.7805 34.3927 87.7805 35.0221C87.7805 35.202 87.6685 35.3144 87.4443 35.3144H84.7992C84.8664 36.1686 85.3147 36.5957 86.1442 36.5957C86.3011 36.5957 86.4804 36.5733 86.6597 36.5283C86.8391 36.4833 87.0184 36.4159 87.1977 36.3035C87.3098 36.2361 87.4219 36.2136 87.5115 36.2361C87.6012 36.2585 87.6685 36.3035 87.6909 36.3709C87.7133 36.4384 87.7357 36.5283 87.7133 36.6182C87.6909 36.7081 87.6236 36.7981 87.5115 36.8655C87.3322 37.0004 87.1081 37.0903 86.8391 37.1577C86.5925 37.1802 86.3683 37.2252 86.1442 37.2252ZM86.0097 33.5834C85.651 33.5834 85.382 33.6958 85.1803 33.9206C84.9785 34.1454 84.844 34.4376 84.7992 34.7973H87.0856C87.0632 34.4151 86.9736 34.1229 86.7942 33.9206C86.5925 33.6958 86.3459 33.5834 86.0097 33.5834Z" fill="#005A28"/>
<path d="M93.0261 37.2027C92.7347 37.2027 92.6002 37.0453 92.6002 36.7531V31.9648H90.8293C90.5827 31.9648 90.4482 31.8524 90.4482 31.6051C90.4482 31.3578 90.5827 31.2454 90.8293 31.2454H95.2229C95.4695 31.2454 95.604 31.3578 95.604 31.6051C95.604 31.8524 95.4695 31.9648 95.2229 31.9648H93.452V36.7531C93.452 37.0678 93.2951 37.2027 93.0261 37.2027Z" fill="#005A28"/>
<path d="M96.0079 37.2027C95.7165 37.2027 95.582 37.0678 95.582 36.7756V33.426C95.582 33.1338 95.7165 32.9989 95.9855 32.9989C96.2545 32.9989 96.389 33.1338 96.389 33.426V33.7857C96.5011 33.5384 96.658 33.3361 96.9046 33.2012C97.1288 33.0663 97.3978 32.9989 97.734 32.9764C97.9357 32.9539 98.0478 33.0663 98.0702 33.3136C98.0927 33.5609 97.9806 33.6958 97.7116 33.7182L97.5547 33.7407C96.8149 33.8082 96.4338 34.1903 96.4338 34.8872V36.7981C96.4338 37.0678 96.2994 37.2027 96.0079 37.2027Z" fill="#005A28"/>
<path d="M100.043 37.2252C99.7515 37.2252 99.5049 37.1802 99.2807 37.0678C99.0566 36.9554 98.8773 36.7981 98.7428 36.6182C98.6083 36.4384 98.541 36.2136 98.541 35.9663C98.541 35.674 98.6083 35.4268 98.7652 35.2469C98.9221 35.0671 99.1687 34.9547 99.5273 34.8647C99.886 34.7748 100.357 34.7523 100.962 34.7523H101.253V34.5275C101.253 34.2128 101.186 33.988 101.052 33.8307C100.917 33.6733 100.693 33.6283 100.402 33.6283C100.222 33.6283 100.043 33.6508 99.8412 33.6958C99.6394 33.7407 99.4601 33.8082 99.2359 33.9206C99.1238 33.9655 99.0118 33.988 98.9445 33.9431C98.8773 33.8981 98.81 33.8531 98.7876 33.7632C98.7652 33.6733 98.7652 33.5834 98.7876 33.4934C98.81 33.4035 98.8997 33.3361 98.9893 33.2911C99.2359 33.1787 99.4825 33.0888 99.7067 33.0438C99.9532 32.9989 100.177 32.9539 100.379 32.9539C100.94 32.9539 101.343 33.0888 101.612 33.3586C101.881 33.6283 102.016 34.033 102.016 34.595V36.7531C102.016 37.0453 101.881 37.1802 101.612 37.1802C101.343 37.1802 101.209 37.0453 101.209 36.7531V36.4384C101.119 36.6632 100.962 36.8655 100.738 37.0004C100.514 37.1353 100.334 37.2252 100.043 37.2252ZM100.2 36.6182C100.491 36.6182 100.76 36.5058 100.962 36.3035C101.164 36.1012 101.253 35.8314 101.253 35.4942V35.2694H100.984C100.581 35.2694 100.267 35.2919 100.02 35.3368C99.7739 35.3818 99.617 35.4492 99.5273 35.5392C99.4377 35.6291 99.3704 35.764 99.3704 35.9213C99.3704 36.1236 99.4377 36.3035 99.5946 36.4384C99.7515 36.5508 99.9532 36.6182 100.2 36.6182Z" fill="#005A28"/>
<path d="M105.49 37.2252C105.176 37.2252 104.907 37.1577 104.683 37.0229C104.436 36.888 104.257 36.7081 104.145 36.4609V36.7756C104.145 37.0678 104.01 37.2027 103.741 37.2027C103.472 37.2027 103.315 37.0678 103.315 36.7756V31.6051C103.315 31.3129 103.45 31.178 103.741 31.178C104.033 31.178 104.167 31.3129 104.167 31.6051V33.7183C104.279 33.4935 104.459 33.3136 104.705 33.1787C104.952 33.0438 105.221 32.9764 105.512 32.9764C105.871 32.9764 106.185 33.0663 106.454 33.2462C106.723 33.426 106.924 33.6733 107.081 33.988C107.238 34.3027 107.306 34.6849 107.306 35.112C107.306 35.5392 107.238 35.9213 107.081 36.2361C106.924 36.5508 106.723 36.7981 106.454 36.9779C106.162 37.1353 105.848 37.2252 105.49 37.2252ZM105.266 36.5733C105.624 36.5733 105.893 36.4384 106.095 36.1911C106.297 35.9438 106.409 35.5841 106.409 35.112C106.409 34.6399 106.297 34.2803 106.095 34.033C105.893 33.7857 105.602 33.6508 105.266 33.6508C104.907 33.6508 104.638 33.7857 104.436 34.033C104.234 34.2803 104.122 34.6399 104.122 35.112C104.122 35.5841 104.234 35.9438 104.436 36.1911C104.638 36.4384 104.929 36.5733 105.266 36.5733Z" fill="#005A28"/>
<path d="M109.592 37.2252C109.3 37.2252 109.054 37.1802 108.83 37.0678C108.605 36.9554 108.426 36.7981 108.292 36.6182C108.157 36.4384 108.09 36.2136 108.09 35.9663C108.09 35.674 108.157 35.4268 108.314 35.2469C108.471 35.0671 108.718 34.9547 109.076 34.8647C109.435 34.7748 109.906 34.7523 110.511 34.7523H110.802V34.5275C110.802 34.2128 110.735 33.988 110.6 33.8307C110.466 33.6733 110.242 33.6283 109.95 33.6283C109.771 33.6283 109.592 33.6508 109.39 33.6958C109.188 33.7407 109.009 33.8082 108.785 33.9206C108.673 33.9655 108.561 33.988 108.493 33.9431C108.426 33.8981 108.359 33.8531 108.336 33.7632C108.314 33.6733 108.314 33.5834 108.336 33.4934C108.359 33.4035 108.449 33.3361 108.538 33.2911C108.785 33.1787 109.031 33.0888 109.255 33.0438C109.502 32.9989 109.726 32.9539 109.928 32.9539C110.488 32.9539 110.892 33.0888 111.161 33.3586C111.43 33.6283 111.564 34.033 111.564 34.595V36.7531C111.564 37.0453 111.43 37.1802 111.161 37.1802C110.892 37.1802 110.757 37.0453 110.757 36.7531V36.4384C110.668 36.6632 110.511 36.8655 110.287 37.0004C110.062 37.1353 109.906 37.2252 109.592 37.2252ZM109.771 36.6182C110.062 36.6182 110.331 36.5058 110.533 36.3035C110.735 36.1012 110.825 35.8314 110.825 35.4942V35.2694H110.556C110.152 35.2694 109.838 35.2919 109.592 35.3368C109.345 35.3818 109.188 35.4492 109.099 35.5392C109.009 35.6291 108.942 35.764 108.942 35.9213C108.942 36.1236 109.009 36.3035 109.166 36.4384C109.323 36.5508 109.524 36.6182 109.771 36.6182Z" fill="#005A28"/>
<path d="M112.215 38.7314C112.081 38.7314 111.991 38.7089 111.924 38.6414C111.856 38.574 111.812 38.5066 111.812 38.4166C111.812 38.3267 111.812 38.2593 111.856 38.1918C111.901 38.1244 111.968 38.0794 112.081 38.0794C112.35 38.057 112.574 37.9895 112.686 37.8546C112.798 37.7198 112.888 37.5174 112.888 37.2252V33.426C112.888 33.1338 113.022 32.9989 113.313 32.9989C113.582 32.9989 113.739 33.1338 113.739 33.426V37.1802C113.739 37.6973 113.605 38.0794 113.358 38.3267C113.089 38.574 112.708 38.7089 112.215 38.7314ZM113.313 32.1446C113.157 32.1446 113.022 32.0997 112.932 32.0098C112.843 31.9198 112.798 31.8074 112.798 31.6501C112.798 31.3353 112.977 31.178 113.313 31.178C113.65 31.178 113.829 31.3353 113.829 31.6501C113.829 31.9648 113.65 32.1446 113.313 32.1446Z" fill="#005A28"/>
<path d="M116.766 37.2252C116.362 37.2252 116.003 37.1353 115.69 36.9554C115.398 36.7756 115.152 36.5283 114.995 36.2136C114.838 35.8988 114.748 35.5167 114.748 35.0895C114.748 34.6624 114.838 34.2803 114.995 33.9655C115.152 33.6508 115.398 33.4035 115.69 33.2237C115.981 33.0438 116.34 32.9539 116.766 32.9539C117.169 32.9539 117.528 33.0438 117.819 33.2237C118.11 33.4035 118.357 33.6508 118.514 33.9655C118.671 34.2803 118.761 34.6624 118.761 35.0895C118.761 35.5167 118.671 35.8988 118.514 36.2136C118.357 36.5283 118.11 36.7756 117.819 36.9554C117.505 37.1353 117.147 37.2252 116.766 37.2252ZM116.766 36.5733C117.102 36.5733 117.393 36.4384 117.595 36.1911C117.797 35.9438 117.909 35.5841 117.909 35.112C117.909 34.6399 117.797 34.2803 117.595 34.033C117.393 33.7857 117.102 33.6508 116.766 33.6508C116.407 33.6508 116.138 33.7857 115.914 34.033C115.712 34.2803 115.6 34.6399 115.6 35.112C115.6 35.5841 115.712 35.9438 115.914 36.1911C116.115 36.4384 116.407 36.5733 116.766 36.5733Z" fill="#005A28"/>
<path d="M122.571 37.2027C122.28 37.2027 122.146 37.0453 122.146 36.7531V31.6276C122.146 31.3353 122.28 31.178 122.571 31.178C122.863 31.178 122.997 31.3353 122.997 31.6276V36.7531C123.02 37.0678 122.863 37.2027 122.571 37.2027Z" fill="#005A28"/>
<path d="M124.79 37.2027C124.521 37.2027 124.364 37.0678 124.364 36.7756V33.426C124.364 33.1338 124.499 32.9989 124.768 32.9989C125.037 32.9989 125.171 33.1338 125.171 33.426V33.7407C125.306 33.4935 125.507 33.3136 125.754 33.1787C126.001 33.0438 126.27 32.9764 126.561 32.9764C127.525 32.9764 127.996 33.5159 127.996 34.6175V36.7756C127.996 37.0678 127.861 37.2027 127.57 37.2027C127.278 37.2027 127.144 37.0678 127.144 36.7756V34.6849C127.144 34.3252 127.077 34.0779 126.942 33.9206C126.808 33.7632 126.583 33.6733 126.314 33.6733C125.978 33.6733 125.709 33.7857 125.507 33.988C125.306 34.2128 125.194 34.4826 125.194 34.8423V36.7756C125.216 37.0678 125.059 37.2027 124.79 37.2027Z" fill="#005A28"/>
<path d="M129.923 37.2027C129.632 37.2027 129.497 37.0678 129.497 36.7756V33.7183H129.027C128.803 33.7183 128.69 33.6059 128.69 33.381C128.69 33.1562 128.803 33.0438 129.027 33.0438H129.497V32.9764C129.497 32.4144 129.632 32.0097 129.901 31.7175C130.17 31.4253 130.573 31.2679 131.089 31.2229L131.358 31.2005C131.47 31.2005 131.56 31.2229 131.627 31.2679C131.694 31.3353 131.717 31.4028 131.717 31.4927C131.717 31.5826 131.694 31.6501 131.649 31.7175C131.605 31.7849 131.537 31.8299 131.448 31.8299H131.291C130.954 31.8524 130.73 31.9423 130.573 32.0997C130.416 32.257 130.349 32.5043 130.349 32.819V33.0214H131.156C131.38 33.0214 131.515 33.1338 131.515 33.3586C131.515 33.5834 131.403 33.6958 131.156 33.6958H130.327V36.7531C130.327 37.0678 130.192 37.2027 129.923 37.2027Z" fill="#005A28"/>
<path d="M133.487 37.2252C133.196 37.2252 132.949 37.1802 132.725 37.0678C132.501 36.9554 132.322 36.7981 132.187 36.6182C132.053 36.4384 131.985 36.2136 131.985 35.9663C131.985 35.674 132.053 35.4268 132.21 35.2469C132.366 35.0671 132.613 34.9547 132.972 34.8647C133.33 34.7748 133.801 34.7523 134.406 34.7523H134.698V34.5275C134.698 34.2128 134.63 33.988 134.496 33.8307C134.361 33.6733 134.137 33.6283 133.846 33.6283C133.667 33.6283 133.487 33.6508 133.285 33.6958C133.084 33.7407 132.904 33.8082 132.68 33.9206C132.568 33.9655 132.456 33.988 132.389 33.9431C132.322 33.8981 132.254 33.8531 132.232 33.7632C132.21 33.6733 132.21 33.5834 132.232 33.4934C132.254 33.4035 132.344 33.3361 132.434 33.2911C132.68 33.1787 132.927 33.0888 133.151 33.0438C133.398 32.9989 133.622 32.9539 133.823 32.9539C134.384 32.9539 134.787 33.0888 135.056 33.3586C135.325 33.6283 135.46 34.033 135.46 34.595V36.7531C135.46 37.0453 135.325 37.1802 135.056 37.1802C134.787 37.1802 134.653 37.0453 134.653 36.7531V36.4384C134.563 36.6632 134.406 36.8655 134.182 37.0004C133.958 37.1353 133.779 37.2252 133.487 37.2252ZM133.644 36.6182C133.936 36.6182 134.205 36.5058 134.406 36.3035C134.608 36.1012 134.698 35.8314 134.698 35.4942V35.2694H134.429C134.025 35.2694 133.711 35.2919 133.465 35.3368C133.218 35.3818 133.061 35.4492 132.972 35.5392C132.882 35.6291 132.815 35.764 132.815 35.9213C132.815 36.1236 132.882 36.3035 133.039 36.4384C133.196 36.5508 133.398 36.6182 133.644 36.6182Z" fill="#005A28"/>
<path d="M137.142 37.2027C136.873 37.2027 136.716 37.0678 136.716 36.7756V33.426C136.716 33.1338 136.85 32.9989 137.119 32.9989C137.388 32.9989 137.523 33.1338 137.523 33.426V33.7407C137.657 33.4935 137.859 33.3136 138.106 33.1787C138.352 33.0438 138.621 32.9764 138.913 32.9764C139.877 32.9764 140.347 33.5159 140.347 34.6175V36.7756C140.347 37.0678 140.213 37.2027 139.921 37.2027C139.63 37.2027 139.495 37.0678 139.495 36.7756V34.6849C139.495 34.3252 139.428 34.0779 139.294 33.9206C139.159 33.7632 138.935 33.6733 138.666 33.6733C138.33 33.6733 138.061 33.7857 137.859 33.988C137.657 34.2128 137.545 34.4826 137.545 34.8423V36.7756C137.568 37.0678 137.433 37.2027 137.142 37.2027Z" fill="#005A28"/>
<path d="M143.351 37.2252C142.835 37.2252 142.454 37.0903 142.208 36.8205C141.961 36.5508 141.826 36.1686 141.826 35.674V33.6958H141.333C141.109 33.6958 140.975 33.5834 140.975 33.3586C140.975 33.1338 141.087 33.0214 141.333 33.0214H141.826V32.1671C141.826 31.8749 141.961 31.74 142.252 31.74C142.521 31.74 142.678 31.8749 142.678 32.1671V33.0214H143.665C143.889 33.0214 144.023 33.1338 144.023 33.3586C144.023 33.5834 143.911 33.6958 143.665 33.6958H142.678V35.6066C142.678 35.8989 142.745 36.1237 142.858 36.281C142.97 36.4384 143.194 36.5058 143.463 36.5058C143.552 36.5058 143.642 36.5058 143.732 36.4833C143.799 36.4609 143.866 36.4609 143.934 36.4384C144.001 36.4384 144.046 36.4609 144.09 36.5058C144.135 36.5508 144.158 36.6182 144.158 36.7531C144.158 36.843 144.135 36.9329 144.113 37.0004C144.09 37.0678 144.023 37.1128 143.956 37.1353C143.889 37.1578 143.799 37.1802 143.687 37.2027C143.552 37.2252 143.44 37.2252 143.351 37.2252Z" fill="#005A28"/>
<path d="M145.233 32.1446C145.076 32.1446 144.942 32.0997 144.852 32.0098C144.763 31.9198 144.718 31.8074 144.718 31.6501C144.718 31.3353 144.897 31.178 145.233 31.178C145.57 31.178 145.749 31.3353 145.749 31.6501C145.749 31.9648 145.57 32.1446 145.233 32.1446ZM145.233 37.2027C144.964 37.2027 144.807 37.0453 144.807 36.7531V33.4935C144.807 33.2012 144.942 33.0438 145.233 33.0438C145.525 33.0438 145.659 33.2012 145.659 33.4935V36.7306C145.659 37.0453 145.525 37.2027 145.233 37.2027Z" fill="#005A28"/>
<path d="M147.341 37.2027C147.072 37.2027 146.915 37.0678 146.915 36.7756V31.6051C146.915 31.3129 147.05 31.178 147.341 31.178C147.632 31.178 147.767 31.3129 147.767 31.6051V36.7756C147.767 37.0678 147.61 37.2027 147.341 37.2027Z" fill="#005A28"/>
<path d="M32.3004 6C21.6303 6 13 14.6549 13 25.3556C13 36.0337 21.6303 44.7111 32.3004 44.7111C42.9481 44.7111 51.6008 36.0562 51.6008 25.3556C51.6008 14.6774 42.9481 6 32.3004 6ZM32.3004 43.2049C22.4821 43.2049 14.5243 35.2244 14.5243 25.378C14.5243 15.5317 22.4821 7.55114 32.3004 7.55114C42.1187 7.55114 50.0765 15.5317 50.0765 25.378C50.0765 35.2019 42.1187 43.2049 32.3004 43.2049Z" fill="#005A28"/>
<mask id="mask0_1423_2234" style="mask-type:luminance" maskUnits="userSpaceOnUse" x="13" y="6" width="39" height="39">
<path d="M13.0225 25.3781C13.0225 36.0787 21.6751 44.7336 32.3229 44.7336C42.993 44.7336 51.6233 36.0562 51.6233 25.3781C51.6233 14.6999 42.993 6.02249 32.3229 6.02249C21.6527 6.02249 13.0225 14.6999 13.0225 25.3781Z" fill="white"/>
</mask>
<g mask="url(#mask0_1423_2234)">
<path d="M34.9454 33.2462C34.8781 32.9989 34.6091 33.0214 34.4522 33.0663C34.0039 33.2012 33.69 33.8981 33.8021 34.3927L37.6577 48.6227C37.7474 48.9374 38.0164 49.1398 38.3302 49.1398C38.3975 49.1398 38.4423 49.1398 38.5095 49.1173C38.6889 49.0723 38.8458 48.9599 38.9355 48.8025C39.0251 48.6452 39.0475 48.4653 39.0027 48.2855L34.9454 33.2462Z" fill="#005A28"/>
</g>
<path d="M40.5946 26.8842C40.505 26.7943 40.3481 26.7718 40.236 26.8617C40.1239 26.9517 40.1015 27.109 40.1911 27.2214C40.2136 27.2664 42.6121 30.9307 42.2086 33.0438C39.2945 33.0888 36.0665 31.6501 34.8785 30.5935C34.8561 30.571 33.4663 29.3346 32.8162 26.9741C33.3542 26.9292 33.8249 26.6594 34.1612 26.2548C34.2957 26.2548 34.475 26.2773 34.6767 26.2773C36.3131 26.2773 39.3842 25.6928 41.424 21.7812C43.6208 17.5549 43.1949 15.5991 43.1725 15.5317C43.1501 15.4417 43.1053 15.3743 43.0156 15.3518C42.9932 15.3293 42.2534 15.0371 41.0654 15.0371C39.7876 15.0371 37.815 15.4193 35.6631 17.1952C35.551 17.2851 35.5286 17.4425 35.6182 17.5549C35.6855 17.6673 35.8424 17.7123 35.9769 17.6448C35.9993 17.6223 38.9134 16.0937 41.0654 16.0937C41.4016 16.0937 41.7154 16.1386 41.962 16.2061C41.7379 19.0611 39.967 22.1858 38.8013 23.2874C38.7789 23.3099 37.2994 24.6812 34.7216 25.0408C34.744 24.9284 34.744 24.7936 34.744 24.6812C34.744 24.254 34.6319 23.8494 34.4526 23.5122C35.1475 22.0285 35.8424 19.196 33.6008 15.8014C30.9781 11.8224 29.0503 11.2604 28.983 11.2379C28.8933 11.2154 28.8037 11.2379 28.7364 11.2829C28.6243 11.3728 25.8447 13.5983 26.7862 18.6339C26.8086 18.7688 26.9431 18.8587 27.0776 18.8587C27.2121 18.8587 27.3242 18.7239 27.3242 18.589C27.3242 18.544 27.4139 14.1604 28.9606 12.6317C31.3367 14.2278 33.2197 17.2626 33.6232 18.8363C33.6232 18.8587 34.1612 20.6572 33.5111 22.5455C33.2421 22.4106 32.9283 22.3207 32.6144 22.3207C32.5696 22.3207 32.5248 22.3207 32.4799 22.3207C31.8523 21.4665 30.0366 19.5107 26.6741 19.5107C25.9568 19.5107 25.1722 19.6006 24.4101 19.7804C19.7923 20.882 18.6043 22.4781 18.537 22.5455C18.4922 22.613 18.4698 22.7029 18.4922 22.7928C18.537 22.9277 19.6578 26.3222 24.6791 27.1765C24.7015 27.1765 24.7015 27.1765 24.7239 27.1765C24.8808 27.1765 24.9929 27.0416 24.9929 26.9067C24.9929 26.7718 24.9032 26.6819 24.7912 26.6369C24.4549 26.5021 20.6666 24.9509 19.8148 23.0401C21.8098 21.5789 24.836 20.7696 26.7414 20.7696C26.9207 20.7696 27.0776 20.7696 27.2121 20.7921C27.2345 20.7921 29.2744 21.0169 31.2695 22.8153C30.9332 23.1075 30.6866 23.5347 30.5746 23.9843C29.79 24.3215 26.0689 26.1649 26.2706 31.5601C26.4276 36.326 27.7725 37.8097 27.8398 37.8771C27.8846 37.9221 27.9743 37.967 28.0415 37.967H28.0639C28.2209 37.9445 31.7402 37.5174 33.5559 32.7291C33.6008 32.5942 33.5559 32.4593 33.4214 32.3919C33.2869 32.3245 33.1524 32.3694 33.0628 32.4818C33.0403 32.5268 30.6642 36.2136 28.5571 36.6856C27.3466 34.0779 27.3466 30.5036 27.8174 28.9749C27.8174 28.9524 28.445 26.9741 30.597 25.3556C30.7539 25.8726 31.0453 26.2997 31.4488 26.592C31.5609 28.0307 32.2782 31.3353 36.5821 33.0663C39.1376 34.1004 40.8636 34.3252 41.8499 34.3252C42.5897 34.3252 42.9259 34.2128 42.9708 34.1903C43.0604 34.1679 43.1277 34.1004 43.1501 34.0105C43.1949 33.8981 44.2261 30.4811 40.5946 26.8842ZM31.516 24.6362C31.516 23.9168 32.0316 23.3323 32.6593 23.3323C33.2869 23.3323 33.8025 23.9168 33.8025 24.6362C33.8025 25.3556 33.2869 25.9401 32.6593 25.9401C32.0316 25.9401 31.516 25.3556 31.516 24.6362Z" fill="#005A28"/>
<path d="M32.4793 21.6238C32.6811 21.6463 33.0173 21.6913 33.2415 21.7812C33.3984 21.1517 33.5329 19.9603 33.0846 18.544C32.5017 16.7231 30.4843 14.5875 29.0945 13.396C27.9512 14.8797 27.9737 18.8363 27.9737 18.8363C30.4395 19.106 31.9862 20.9494 32.4793 21.6238Z" fill="#88D35A"/>
<path d="M30.1707 23.3098C30.2828 23.13 30.4621 22.8602 30.6415 22.6804C30.1483 22.2758 29.1396 21.6238 27.6825 21.399C25.7996 21.1293 22.4595 22.1184 20.7783 23.0626C21.6077 24.7261 25.7099 26.1199 25.7099 26.1199C27.01 24.0517 29.3637 23.4447 30.1707 23.3098Z" fill="#F96908"/>
<path d="M30.9327 26.7718C30.7757 26.6369 30.5516 26.3897 30.3947 26.1873C29.9015 26.592 29.0721 27.4687 28.5789 28.8625C27.9513 30.6609 28.31 33.988 28.9376 35.8089C30.7309 35.3143 32.7035 31.8524 32.7035 31.8524C30.9102 30.1663 30.9102 27.5811 30.9327 26.7718Z" fill="#FA3C4B"/>
<path d="M34.2729 27.1989C34.0936 27.2889 33.7798 27.4237 33.5332 27.4687C33.7349 28.0757 34.2057 29.1772 35.3041 30.1663C36.7387 31.4252 39.4287 32.2345 41.3565 32.3469C41.3789 30.4586 39.6528 27.4912 39.6528 27.4912C37.3888 28.5253 35.0127 27.5361 34.2729 27.1989Z" fill="#FFCD2D"/>
<path d="M35.9994 18.1619C35.9994 18.1619 39.6309 16.2286 41.469 16.5433C41.0431 18.3417 40.1016 21.1068 38.779 22.4781C37.2323 24.0517 35.5063 24.2091 35.5063 24.2091C35.5063 24.2091 35.4614 23.6471 35.2148 23.2649C35.3718 22.8827 36.5374 21.1967 35.9994 18.1619Z" fill="#00A0FA"/>
</svg>
